PathFileType	4	(X/Y/Z)	Walk8.trc
DataRate	CameraRate	NumFrames	NumMarkers	Units	OrigDataRate	OrigDataStartFrame	OrigNumFrames
200.000000	200.000000	6	55	mm	200.000000	678	935
Frame#	Times		LToe		LWRR		C7		RTH2		LACR1		RBHD		LElbow		LUA1		RMT1		LCAR		RCAR		RToe		LWRU		RTB2		LMMAL		RTB3		LTH3		RFA1		RTB4		RMT5		LMT5		RTB1		RMFC		RElbow		LTH4		RElbowM		RMMAL		RLFC		RCAL		LTB2		LPSI		LLFC		RPSI		RTH3		LTH2		T10		LASI		LCAL		LBHD		RBack		RASI		RFHD		LFHD		RACR1		LMT1		RLMAL		LLMAL		RUA1		RWRR		LTB1		LMFC		LTH1		LTB3		LTB4		RTH4
			X1	Y1	Z1	X2	Y2	Z2	X3	Y3	Z3	X4	Y4	Z4	X5	Y5	Z5	X6	Y6	Z6	X7	Y7	Z7	X8	Y8	Z8	X9	Y9	Z9	X10	Y10	Z10	X11	Y11	Z11	X12	Y12	Z12	X13	Y13	Z13	X14	Y14	Z14	X15	Y15	Z15	X16	Y16	Z16	X17	Y17	Z17	X18	Y18	Z18	X19	Y19	Z19	X20	Y20	Z20	X21	Y21	Z21	X22	Y22	Z22	X23	Y23	Z23	X24	Y24	Z24	X25	Y25	Z25	X26	Y26	Z26	X27	Y27	Z27	X28	Y28	Z28	X29	Y29	Z29	X30	Y30	Z30	X31	Y31	Z31	X32	Y32	Z32	X33	Y33	Z33	X34	Y34	Z34	X35	Y35	Z35	X36	Y36	Z36	X37	Y37	Z37	X38	Y38	Z38	X39	Y39	Z39	X40	Y40	Z40	X41	Y41	Z41	X42	Y42	Z42	X43	Y43	Z43	X44	Y44	Z44	X45	Y45	Z45	X46	Y46	Z46	X47	Y47	Z47	X48	Y48	Z48	X49	Y49	Z49	X50	Y50	Z50	X51	Y51	Z51	X52	Y52	Z52	X53	Y53	Z53	X54	Y54	Z54	X55	Y55	Z55

678	3.39	-124.7	28.027	-76.978	-51.908	824.8	-319.28	-271.6	1480.5	-57.995	-64.002	705.89	87.752	-167.54	1417.5	-219.23	-239.25	1611.1	-117.51	-178.12	1076.1	-342.91	-163.72	1214.3	-299.53	45.293	54.114	52.709	-128.74	943.29	-340.06	-190.97	799.15	234.6	81.365	76.079	97.084	20.585	830.7	-300.03	-58.317	313.47	105.24	-311.72	67.606	-29.238	-51.857	224.36	31.862	-213.58	574.04	-165.49	-279.09	936.87	231.86	-37.41	311.6	32.681	-2.8845	49.704	119.02	-216.63	22.21	-138.14	-24.055	407.92	36.445	-83.863	507.49	-14.428	-309.64	1096.2	227	-207.49	666.2	-187.93	-336.72	1099.5	146.42	-73.138	94.799	5.092	-72.164	547.19	110.57	-154.26	47.854	10.336	-234.66	289.63	-135.45	-355.65	1039.2	-85.711	-230.6	510.15	-155.5	-361.92	1038.6	-17.418	-86.09	591.89	113.58	-149.31	670.03	-143.16	-356.3	1224.9	-58.602	-158.29	1031.4	-194.78	-398.21	35.537	-65.137	-241.76	1606	19.082	-302.57	1373	93.634	-175.6	996.47	112.76	-63.882	1650.2	-82.591	-65.646	1649	-7.8157	-172.17	1427.5	106.44	-180.55	29.928	-52.727	-114.02	89.874	77.713	-332.05	59.634	-112.36	-224.72	1251.6	190.52	-180.63	846.44	187.13	-207.91	380.26	-66.574	-254.16	493.73	-29.301	-202.89	757.25	-207.23	-260.4	202.51	-61.464	-235.29	291.55	-63.139	-119.39	678.63	129.5
679	3.395	-124.57	27.793	-77.024	-44.116	825.42	-318.92	-267.03	1480.1	-57.847	-60.157	704.89	87.549	-163.04	1417.1	-219.1	-234.69	1610.7	-117.38	-171.98	1075.8	-343.27	-158.45	1214	-299.67	62.587	55.154	53.588	-121.65	943.35	-340.21	-186.5	798.63	234.43	98.245	77.601	98.047	28.224	831.83	-299.3	-48.757	312.94	105.8	-311.63	67.535	-29.11	-39.372	223.76	32.748	-210.96	573.62	-165.43	-274.6	936.37	231.82	-27.562	311.41	33.327	14.531	49.552	119.93	-216.62	22.196	-138.12	-17.166	408.06	36.832	-79.886	506.15	-14.442	-305.11	1095.7	227.08	-204.45	665.79	-187.81	-332.23	1099.1	146.49	-56.819	93.573	6.1282	-68.536	546.25	110.55	-136.91	44.872	11.305	-233.48	289.21	-135.33	-351.18	1038.7	-85.302	-228.38	509.74	-155.42	-357.25	1038.1	-17.049	-82.423	590.98	113.55	-146.36	669.36	-142.93	-352.5	1224.5	-58.499	-154.43	1030.9	-194.74	-398.18	35.624	-65.065	-237.24	1605.5	19.219	-297.95	1372.5	93.775	-170.88	995.81	112.87	-59.354	1649.8	-82.411	-61.147	1648.6	-7.6304	-167.54	1426.9	106.54	-180.52	29.879	-52.695	-97.696	87.58	78.715	-331.97	59.673	-112.28	-220.1	1251.1	190.58	-176.19	845.93	186.97	-206.29	379.74	-66.477	-252.14	493.48	-29.237	-199.41	756.83	-207.13	-259.66	202.23	-61.344	-234.12	291.14	-63.016	-115.4	677.81	129.56
680	3.4	-124.45	27.563	-77.065	-36.396	826.02	-318.54	-262.44	1479.6	-57.683	-56.395	703.76	87.383	-158.52	1416.6	-218.95	-230.13	1610.2	-117.24	-165.85	1075.5	-343.61	-153.18	1213.7	-299.78	79.718	56.434	54.392	-114.61	943.4	-340.32	-181.99	798.09	234.27	114.98	79.342	98.916	35.786	832.92	-298.55	-39.313	312.48	106.35	-311.53	67.471	-28.979	-27.022	223.33	33.637	-208.32	573.2	-165.36	-270.07	935.84	231.81	-17.856	311.3	33.968	31.857	49.653	120.8	-216.62	22.183	-138.1	-10.43	408.2	37.199	-75.997	504.74	-14.465	-300.56	1095.2	227.16	-201.39	665.37	-187.68	-327.71	1098.6	146.59	-40.624	92.612	7.1836	-65.04	545.2	110.54	-119.65	42.196	12.318	-232.28	288.78	-135.19	-346.69	1038.2	-84.862	-226.13	509.31	-155.34	-352.55	1037.5	-16.653	-78.885	589.94	113.54	-143.39	668.69	-142.7	-348.57	1224.2	-58.328	-150.55	1030.4	-194.7	-398.16	35.718	-64.995	-232.71	1604.9	19.374	-293.3	1371.9	93.936	-166.12	995.1	112.98	-54.812	1649.4	-82.215	-56.632	1648.1	-7.4287	-162.87	1426.4	106.66	-180.5	29.83	-52.664	-81.436	85.559	79.752	-331.89	59.716	-112.19	-215.44	1250.5	190.65	-171.72	845.4	186.83	-204.67	379.21	-66.363	-250.08	493.23	-29.161	-195.93	756.39	-207.01	-258.92	201.94	-61.221	-232.94	290.73	-62.888	-111.53	676.88	129.62
681	3.405	-124.33	27.338	-77.102	-28.753	826.59	-318.14	-257.83	1479.1	-57.502	-52.713	702.52	87.259	-153.98	1416.1	-218.78	-225.55	1609.6	-117.08	-159.75	1075.2	-343.93	-147.89	1213.4	-299.86	96.648	57.957	55.11	-107.63	943.42	-340.4	-177.47	797.52	234.13	131.54	81.311	99.673	43.268	833.97	-297.78	-29.993	312.11	106.91	-311.44	67.414	-28.844	-14.829	223.05	34.522	-205.66	572.76	-165.29	-265.52	935.3	231.81	-8.3058	311.27	34.598	49.059	50.013	121.64	-216.61	22.172	-138.07	-3.8447	408.34	37.544	-72.186	503.27	-14.496	-295.97	1094.6	227.27	-198.33	664.94	-187.54	-323.16	1098.1	146.7	-24.595	91.915	8.2494	-61.665	544.03	110.53	-102.52	39.827	13.374	-231.08	288.35	-135.04	-342.17	1037.7	-84.394	-223.86	508.88	-155.24	-347.82	1036.9	-16.232	-75.468	588.8	113.53	-140.4	668.02	-142.46	-344.47	1223.8	-58.086	-146.63	1029.9	-194.68	-398.13	35.819	-64.926	-228.16	1604.3	19.548	-288.61	1371.4	94.119	-161.34	994.37	113.1	-50.256	1648.9	-82.003	-52.101	1647.7	-7.2105	-158.18	1425.8	106.79	-180.47	29.781	-52.634	-65.275	83.817	80.819	-331.81	59.764	-112.1	-210.75	1249.9	190.74	-167.23	844.85	186.7	-203.06	378.66	-66.236	-247.99	492.97	-29.072	-192.43	755.93	-206.89	-258.17	201.66	-61.096	-231.76	290.31	-62.753	-107.77	675.84	129.68
682	3.41	-124.21	27.117	-77.136	-21.19	827.13	-317.72	-253.21	1478.6	-57.301	-49.103	701.18	87.181	-149.42	1415.6	-218.59	-220.95	1609.1	-116.9	-153.68	1074.9	-344.22	-142.59	1213.1	-299.92	113.34	59.726	55.731	-100.71	943.43	-340.45	-172.91	796.93	233.99	147.89	83.511	100.3	50.67	834.98	-296.99	-20.8	311.82	107.45	-311.34	67.365	-28.704	-2.8181	222.93	35.393	-202.97	572.32	-165.22	-260.93	934.73	231.83	1.0783	311.33	35.208	66.097	50.637	122.43	-216.6	22.163	-138.05	2.5925	408.49	37.863	-68.438	501.77	-14.533	-291.35	1094.1	227.39	-195.25	664.51	-187.4	-318.58	1097.6	146.83	-8.7719	91.48	9.3151	-58.398	542.78	110.53	-85.564	37.756	14.467	-229.87	287.91	-134.89	-337.62	1037.1	-83.897	-221.57	508.44	-155.14	-343.07	1036.3	-15.785	-72.16	587.54	113.52	-137.41	667.33	-142.23	-340.2	1223.3	-57.772	-142.66	1029.4	-194.68	-398.1	35.927	-64.859	-223.59	1603.8	19.74	-283.91	1370.8	94.324	-156.52	993.59	113.23	-45.685	1648.4	-81.775	-47.554	1647.1	-6.9761	-153.47	1425.2	106.93	-180.45	29.734	-52.605	-49.254	82.356	81.91	-331.73	59.818	-112.01	-206.02	1249.3	190.84	-162.7	844.27	186.59	-201.45	378.1	-66.098	-245.85	492.71	-28.971	-188.92	755.46	-206.75	-257.41	201.38	-60.969	-230.57	289.89	-62.614	-104.12	674.71	129.74
683	3.415	-124.1	26.9	-77.167	-13.708	827.64	-317.28	-248.56	1478	-57.081	-45.558	699.75	87.153	-144.85	1415	-218.39	-216.34	1608.5	-116.7	-147.62	1074.6	-344.48	-137.28	1212.8	-299.94	129.74	61.738	56.245	-93.852	943.42	-340.46	-168.33	796.31	233.87	163.99	85.943	100.79	57.988	835.93	-296.18	-11.743	311.61	107.97	-311.25	67.327	-28.559	8.9878	222.97	36.242	-200.27	571.87	-165.14	-256.33	934.14	231.87	10.285	311.46	35.793	82.926	51.521	123.14	-216.6	22.155	-138.03	8.8872	408.64	38.154	-64.741	500.23	-14.575	-286.71	1093.5	227.53	-192.16	664.07	-187.25	-313.98	1097.1	146.98	6.7994	91.299	10.368	-55.223	541.43	110.53	-68.834	35.975	15.59	-228.64	287.47	-134.73	-333.05	1036.4	-83.373	-219.27	507.99	-155.02	-338.28	1035.7	-15.316	-68.945	586.19	113.52	-134.4	666.64	-141.98	-335.76	1222.8	-57.384	-138.64	1028.9	-194.7	-398.07	36.043	-64.795	-219.01	1603.1	19.949	-279.17	1370.2	94.551	-151.66	992.78	113.36	-41.099	1647.9	-81.53	-42.992	1646.6	-6.7258	-148.73	1424.6	107.09	-180.42	29.689	-52.578	-33.415	81.172	83.013	-331.66	59.878	-111.92	-201.27	1248.7	190.96	-158.15	843.68	186.5	-199.83	377.53	-65.95	-243.69	492.45	-28.859	-185.39	754.98	-206.61	-256.65	201.09	-60.84	-229.37	289.46	-62.469	-100.56	673.48	129.8
